<?xml version="1.0" encoding="UTF-8"?>
<svg xmlns="http://www.w3.org/2000/svg" width="360" height="236" viewBox="0 0 360 236" preserveAspectRatio="xMidYMid meet" role="img" aria-label="CatLABS X Film 320 Pro 135 front artwork">
  <defs>
    <filter id="cutoutShadow" x="-12%" y="-20%" width="124%" height="150%">
      <feDropShadow dx="0" dy="8" stdDeviation="5.5" flood-color="#1f1b18" flood-opacity="0.18"/>
    </filter>
    <pattern id="paperGrain" width="18" height="18" patternUnits="userSpaceOnUse">
      <circle cx="3" cy="4" r="0.8" fill="#ffffff" opacity="0.45"/>
      <circle cx="12" cy="8" r="0.7" fill="#000000" opacity="0.18"/>
      <circle cx="7" cy="15" r="0.6" fill="#ffffff" opacity="0.30"/>
      <circle cx="16" cy="15" r="0.5" fill="#000000" opacity="0.14"/>
    </pattern>
    <linearGradient id="topGloss" x1="0" x2="0" y1="0" y2="1">
      <stop offset="0" stop-color="#ffffff" stop-opacity="0.58"/>
      <stop offset="1" stop-color="#ffffff" stop-opacity="0"/>
    </linearGradient>
  </defs>
  
    <g>
      <clipPath id="faceClip"><rect x="54" y="38" width="252" height="164" rx="6"/></clipPath>
      <rect x="54" y="38" width="252" height="164" rx="6" fill="#f4f1e6" stroke="#23221d" stroke-width="2.2"/>
      <g clip-path="url(#faceClip)">
        
    <rect x="54" y="38" width="252" height="164" fill="#f4f1e6"/>
    <rect x="54" y="38" width="252" height="49.199999999999996" fill="#111111"/>
    <rect x="54" y="156.07999999999998" width="252" height="45.92" fill="#111111"/>
    <text x="78" y="70.80000000000001" font-family="Arial Black, Arial, sans-serif" font-size="18" fill="#ffffff">CatLABS</text>
    <text x="80" y="133.12" font-family="Arial Black, Arial, sans-serif" font-size="21.65178571428571" fill="#111111">X FILM 320 PRO</text>
    <text x="82" y="182.32" font-family="Arial, Helvetica, sans-serif" font-size="8.8" font-weight="900" fill="#ffffff">BLACK &amp; WHITE FILM</text>
    <text x="280" y="182.32" text-anchor="end" font-family="Arial Black, Arial, sans-serif" font-size="15" fill="#d8a829">36 EXP</text>
  
        <rect x="54" y="38" width="252" height="164" fill="url(#paperGrain)" opacity="0.08"/>
      </g>
      <rect x="55.2" y="39.2" width="249.6" height="161.6" rx="5" fill="none" stroke="#000000" stroke-width="0.7" opacity="0.25"/>
    </g>
</svg>
