<?xml version="1.0" encoding="UTF-8"?>
<svg xmlns="http://www.w3.org/2000/svg" width="360" height="236" viewBox="0 0 360 236" preserveAspectRatio="xMidYMid meet" role="img" aria-label="Fujifilm instax SQUARE Monochrome instax SQUARE front artwork">
  <defs>
    <filter id="cutoutShadow" x="-12%" y="-20%" width="124%" height="150%">
      <feDropShadow dx="0" dy="8" stdDeviation="5.5" flood-color="#1f1b18" flood-opacity="0.18"/>
    </filter>
    <pattern id="paperGrain" width="18" height="18" patternUnits="userSpaceOnUse">
      <circle cx="3" cy="4" r="0.8" fill="#ffffff" opacity="0.45"/>
      <circle cx="12" cy="8" r="0.7" fill="#000000" opacity="0.18"/>
      <circle cx="7" cy="15" r="0.6" fill="#ffffff" opacity="0.30"/>
      <circle cx="16" cy="15" r="0.5" fill="#000000" opacity="0.14"/>
    </pattern>
    <linearGradient id="topGloss" x1="0" x2="0" y1="0" y2="1">
      <stop offset="0" stop-color="#ffffff" stop-opacity="0.58"/>
      <stop offset="1" stop-color="#ffffff" stop-opacity="0"/>
    </linearGradient>
  </defs>
  
    <g>
      <clipPath id="faceClip"><rect x="100" y="42" width="160" height="152" rx="7"/></clipPath>
      <rect x="100" y="42" width="160" height="152" rx="7" fill="#f5f5f2" stroke="#1c282e" stroke-width="2.2"/>
      <g clip-path="url(#faceClip)">
        
    <rect x="100" y="42" width="160" height="152" fill="#f5f5f2"/>
    <rect x="109" y="51" width="142" height="134" rx="6" fill="#eeeeea"/>
    <path d="M 100 78.47999999999999 C 143.2 51.12, 207.2 101.28, 260 67.84 L 260 124.08000000000001 C 208.8 151.44, 149.6 96.72, 100 130.16 Z" fill="#36ad7b" opacity="0.88"/>
    <path d="M 100 133.2 C 154.4 105.84, 196 166.64, 260 137.76 L 260 194 L 100 194 Z" fill="#13956f" opacity="0.86"/>
    <rect x="115" y="56" width="130" height="38" rx="5" fill="#ffffff" opacity="0.82"/>
    <text x="122" y="75" font-family="Arial Black, Arial, sans-serif" font-size="10.5" fill="#e43b31">FUJIFILM</text>
    <text x="122" y="98" font-family="Arial Black, Arial, sans-serif" font-size="23" fill="#10212b">instax</text>
    <text x="121" y="130.16" font-family="Arial Black, Arial, sans-serif" font-size="31" fill="#10212b">SQUARE</text>
    <text x="123" y="151.44" font-family="Arial, Helvetica, sans-serif" font-size="8.8" font-weight="900" fill="#10212b" opacity="0.82">MONOCHROME</text>
    <rect x="121" y="164" width="74" height="18" rx="9" fill="#29b5d7"/>
    <text x="158" y="177" text-anchor="middle" font-family="Arial Black, Arial, sans-serif" font-size="9" fill="#10212b">10 EXP</text>
    <text x="241" y="177" text-anchor="end" font-family="Arial Black, Arial, sans-serif" font-size="10" fill="#10212b">ISO 800</text>
  
        <rect x="100" y="42" width="160" height="152" fill="url(#paperGrain)" opacity="0.08"/>
      </g>
      <rect x="101.2" y="43.2" width="157.6" height="149.6" rx="6" fill="none" stroke="#000000" stroke-width="0.7" opacity="0.25"/>
    </g>
</svg>
