<?xml version="1.0" encoding="UTF-8"?>
<svg xmlns="http://www.w3.org/2000/svg" width="360" height="236" viewBox="0 0 360 236" preserveAspectRatio="xMidYMid meet" role="img" aria-label="Harman Phoenix 200 135 front artwork">
  <defs>
    <filter id="cutoutShadow" x="-12%" y="-20%" width="124%" height="150%">
      <feDropShadow dx="0" dy="8" stdDeviation="5.5" flood-color="#1f1b18" flood-opacity="0.18"/>
    </filter>
    <pattern id="paperGrain" width="18" height="18" patternUnits="userSpaceOnUse">
      <circle cx="3" cy="4" r="0.8" fill="#ffffff" opacity="0.45"/>
      <circle cx="12" cy="8" r="0.7" fill="#000000" opacity="0.18"/>
      <circle cx="7" cy="15" r="0.6" fill="#ffffff" opacity="0.30"/>
      <circle cx="16" cy="15" r="0.5" fill="#000000" opacity="0.14"/>
    </pattern>
    <linearGradient id="topGloss" x1="0" x2="0" y1="0" y2="1">
      <stop offset="0" stop-color="#ffffff" stop-opacity="0.58"/>
      <stop offset="1" stop-color="#ffffff" stop-opacity="0"/>
    </linearGradient>
  </defs>
  
    <g>
      <clipPath id="faceClip"><rect x="54" y="38" width="252" height="164" rx="6"/></clipPath>
      <rect x="54" y="38" width="252" height="164" rx="6" fill="#f15b3e" stroke="#4c1e1a" stroke-width="2.2"/>
      <g clip-path="url(#faceClip)">
        
    <rect x="54" y="38" width="252" height="164" fill="#f15b3e"/>
    <path d="M 54 38 L 306 38 L 306 80.64 C 230.39999999999998 46.2, 124.56 51.120000000000005, 54 80.64 Z" fill="#f47961" opacity="0.58"/>
    <path d="M 210.24 38 L 306 38 L 306 202 L 237.96 202 Z" fill="#c84c33" opacity="0.34"/>
    <text x="83" y="67" font-family="Arial Black, Arial, sans-serif" font-size="18" fill="#ffffff">HARMAN</text>
    <text x="83" y="139.68" font-family="Arial Black, Arial, sans-serif" font-size="33" fill="#ffffff">PHOENIX</text>
    <text x="85" y="139.68" font-family="Arial Black, Arial, sans-serif" font-size="33" fill="none" stroke="#b5442f" stroke-width="1.1" opacity="0.70">PHOENIX</text>
    <text x="86" y="162.64" font-family="Arial Black, Arial, sans-serif" font-size="10.6" fill="#ffffff">ISO 200 COLOUR FILM</text>
    <rect x="84" y="171" width="192" height="2.2" fill="#ffffff" opacity="0.55"/>
    <text x="85" y="189" font-family="Arial Black, Arial, sans-serif" font-size="8.8" fill="#ffffff">35MM / 36 EXP.</text>
    <text x="288" y="66" text-anchor="end" font-family="Arial Black, Arial, sans-serif" font-size="16" fill="#ffffff">36 EXP</text>
  
        <rect x="54" y="38" width="252" height="164" fill="url(#paperGrain)" opacity="0.08"/>
      </g>
      <rect x="55.2" y="39.2" width="249.6" height="161.6" rx="5" fill="none" stroke="#000000" stroke-width="0.7" opacity="0.25"/>
    </g>
</svg>
