<?xml version="1.0" encoding="UTF-8"?>
<svg xmlns="http://www.w3.org/2000/svg" width="360" height="236" viewBox="0 0 360 236" preserveAspectRatio="xMidYMid meet" role="img" aria-label="Polaroid Type 59 Packfilm / 4x5 front artwork">
  <defs>
    <filter id="cutoutShadow" x="-12%" y="-20%" width="124%" height="150%">
      <feDropShadow dx="0" dy="8" stdDeviation="5.5" flood-color="#1f1b18" flood-opacity="0.18"/>
    </filter>
    <pattern id="paperGrain" width="18" height="18" patternUnits="userSpaceOnUse">
      <circle cx="3" cy="4" r="0.8" fill="#ffffff" opacity="0.45"/>
      <circle cx="12" cy="8" r="0.7" fill="#000000" opacity="0.18"/>
      <circle cx="7" cy="15" r="0.6" fill="#ffffff" opacity="0.30"/>
      <circle cx="16" cy="15" r="0.5" fill="#000000" opacity="0.14"/>
    </pattern>
    <linearGradient id="topGloss" x1="0" x2="0" y1="0" y2="1">
      <stop offset="0" stop-color="#ffffff" stop-opacity="0.58"/>
      <stop offset="1" stop-color="#ffffff" stop-opacity="0"/>
    </linearGradient>
  </defs>
  
    <g>
      <clipPath id="faceClip"><rect x="44" y="62" width="272" height="126" rx="7"/></clipPath>
      <rect x="44" y="62" width="272" height="126" rx="7" fill="#f4f1e8" stroke="#1d1a17" stroke-width="2.2"/>
      <g clip-path="url(#faceClip)">
        
    <rect x="44" y="62" width="272" height="126" fill="#f4f1e8"/>
    
    
      <rect x="44" y="62" width="272" height="126" fill="#f3efe4"/>
      <rect x="44" y="62" width="76.16000000000001" height="126" fill="#275e9f"/>
      <rect x="120.16000000000001" y="150.2" width="195.84" height="37.8" fill="#df2f2a"/>
      <rect x="120.16000000000001" y="87.2" width="195.84" height="8" fill="#f0c431"/>
      <rect x="120.16000000000001" y="102.32" width="195.84" height="8" fill="#275e9f"/>
      <text x="62" y="92" font-family="Arial Black, Arial, sans-serif" font-size="13" fill="#ffffff">Polaroid</text>
      <text x="141.92000000000002" y="127.52" font-family="Arial Black, Arial, sans-serif" font-size="27" fill="#111111">TYPE 59</text>
      <text x="141.92000000000002" y="167.83999999999997" font-family="Arial, Helvetica, sans-serif" font-size="8.3" font-weight="900" fill="#ffffff">PEEL-APART COLOR</text>
    
    
    <text x="292" y="92" text-anchor="end" font-family="Arial Black, Arial, sans-serif" font-size="14" fill="#111111">ISO 80</text>
    <text x="292" y="172" text-anchor="end" font-family="Arial Black, Arial, sans-serif" font-size="10" fill="#ffffff">20 SHEETS</text>
  
        <rect x="44" y="62" width="272" height="126" fill="url(#paperGrain)" opacity="0.08"/>
      </g>
      <rect x="45.2" y="63.2" width="269.6" height="123.6" rx="6" fill="none" stroke="#000000" stroke-width="0.7" opacity="0.25"/>
    </g>
</svg>
