<?xml version="1.0" encoding="UTF-8"?>
<svg xmlns="http://www.w3.org/2000/svg" width="360" height="236" viewBox="0 0 360 236" preserveAspectRatio="xMidYMid meet" role="img" aria-label="Shanghai GP3 100 120 front artwork">
  <defs>
    <filter id="cutoutShadow" x="-12%" y="-20%" width="124%" height="150%">
      <feDropShadow dx="0" dy="8" stdDeviation="5.5" flood-color="#1f1b18" flood-opacity="0.18"/>
    </filter>
    <pattern id="paperGrain" width="18" height="18" patternUnits="userSpaceOnUse">
      <circle cx="3" cy="4" r="0.8" fill="#ffffff" opacity="0.45"/>
      <circle cx="12" cy="8" r="0.7" fill="#000000" opacity="0.18"/>
      <circle cx="7" cy="15" r="0.6" fill="#ffffff" opacity="0.30"/>
      <circle cx="16" cy="15" r="0.5" fill="#000000" opacity="0.14"/>
    </pattern>
    <linearGradient id="topGloss" x1="0" x2="0" y1="0" y2="1">
      <stop offset="0" stop-color="#ffffff" stop-opacity="0.58"/>
      <stop offset="1" stop-color="#ffffff" stop-opacity="0"/>
    </linearGradient>
  </defs>

    <g>
      <clipPath id="faceClip"><rect x="43" y="70" width="276" height="128" rx="6"/></clipPath>
      <rect x="43" y="70" width="276" height="128" rx="6" fill="#f4f1e8" stroke="#222222" stroke-width="2.2"/>
      <g clip-path="url(#faceClip)">

    <rect x="43" y="70" width="276" height="128" fill="#f4f1e8"/>
    <rect x="43" y="70" width="276" height="32" fill="#ffffff"/>
    <rect x="43" y="102" width="276" height="42.24" fill="#1d4f91"/>
    <rect x="43" y="144.24" width="276" height="53.76" fill="#d71920"/>
    <text x="65" y="103" font-family="Arial Black, Arial, sans-serif" font-size="15" fill="#d71920">SHANGHAI</text>
    <text x="65" y="132.72" font-family="Arial Black, Arial, sans-serif" font-size="30" fill="#ffffff">GP3</text>
    <text x="135" y="132.72" font-family="Arial Black, Arial, sans-serif" font-size="18" fill="#ffffff">100</text>
    <text x="66" y="169.84" font-family="Arial Black, Arial, sans-serif" font-size="20" fill="#ffffff">上海黑白胶卷</text>
    <text x="68" y="187.76" font-family="Arial, Helvetica, sans-serif" font-size="8" font-weight="900" fill="#ffffff">BLACK &amp; WHITE PANCHROMATIC FILM</text>
    <text x="295" y="103" text-anchor="end" font-family="Arial Black, Arial, sans-serif" font-size="12" fill="#111111">120</text>

        <rect x="43" y="70" width="276" height="128" fill="url(#paperGrain)" opacity="0.08"/>
      </g>
      <rect x="44.2" y="71.2" width="273.6" height="125.6" rx="5" fill="none" stroke="#000000" stroke-width="0.7" opacity="0.25"/>
    </g>
</svg>
